<svg xmlns="http://www.w3.org/2000/svg" viewBox="0 0 760 486" overflow="visible"><path fill="#e1edff" d="M0 0h760v486H0z"/><path d="M760.3 292.13v194.13H246.19c1.09-60.11 41.04-109.99 93.99-121.87 19.75-90.34 95.26-157.6 185.41-157.6 67.92 0 127.53 38.19 161.25 95.66 14.7-8.49 31.52-13.32 49.39-13.32 8.28-.01 16.35 1.03 24.07 3z" fill="#f5faff"/><path fill="#fff" d="M487.59 475.72s-8.41-.17-8.67 5.8c-.2 4.54 2.44 4.74 2.44 4.74l50.32-.06s1.21.41.46-4.68h-44.56v-5.8z"/><path fill="#151928" d="M57.35 207.44h2.33l3.65 14.19 4.03-14.19h2.45l3.84 14.14 3.67-14.14h2.35l-4.85 16.73h-2.45l-3.89-13.46-4.03 13.46-2.42.02-4.68-16.75zM84.26 224.17h-2.18v-13.15h2.18v2.14c.74-1.46 2.16-2.38 4.25-2.38v2.26h-.58c-2.09 0-3.67.94-3.67 3.98v7.15zM90.66 207.39c0-.84.65-1.49 1.49-1.49.79 0 1.44.65 1.44 1.49s-.65 1.49-1.44 1.49c-.84 0-1.49-.65-1.49-1.49zm.36 3.63h2.18v13.15h-2.18v-13.15zM97.41 212.82h-1.7v-1.8h1.7v-3.31h2.18v3.31h3.43v1.8h-3.43v7.75c0 1.3.48 1.75 1.82 1.75h1.61v1.85h-1.97c-2.33 0-3.65-.96-3.65-3.6v-7.75zM111.35 224.39c-3.74 0-6.5-2.64-6.5-6.82 0-4.15 2.66-6.77 6.5-6.77 3.82 0 6.31 2.69 6.31 6.29 0 .48-.02.86-.07 1.32h-10.51c.17 2.66 2.04 4.13 4.27 4.13 1.97 0 3.22-1.01 3.7-2.42h2.35c-.67 2.39-2.78 4.27-6.05 4.27zm-4.25-7.76h8.3c.03-2.57-1.9-3.98-4.15-3.98-2.13 0-3.91 1.42-4.15 3.98zM132.38 210.8c2.45 0 4.13 1.25 4.9 2.62v-2.4h2.21v13.15h-2.21v-2.45c-.79 1.42-2.5 2.66-4.92 2.66-3.5 0-6.22-2.76-6.22-6.84 0-4.1 2.71-6.74 6.24-6.74zm.43 1.9c-2.4 0-4.44 1.75-4.44 4.85 0 3.1 2.04 4.92 4.44 4.92s4.46-1.8 4.46-4.9c0-3.05-2.06-4.87-4.46-4.87zM152.8 216.73c0-2.69-1.46-4.06-3.67-4.06-2.23 0-3.77 1.39-3.77 4.22v7.27h-2.18v-13.15h2.18v1.87c.87-1.37 2.45-2.11 4.22-2.11 3.05 0 5.38 1.87 5.38 5.64v7.75h-2.16v-7.43zM167.61 211.02h2.26l-7.92 19.35h-2.26l2.59-6.34-5.3-13.01h2.42l4.13 10.66 4.08-10.66zM172.53 212.82h-1.7v-1.8h1.7v-3.31h2.18v3.31h3.43v1.8h-3.43v7.75c0 1.3.48 1.75 1.82 1.75h1.61v1.85h-1.97c-2.33 0-3.65-.96-3.65-3.6v-7.75zM180.78 206.41h2.18v6.5c.87-1.39 2.5-2.14 4.35-2.14 2.93 0 5.26 1.87 5.26 5.64v7.75h-2.16v-7.44c0-2.69-1.46-4.06-3.67-4.06-2.23 0-3.77 1.39-3.77 4.22v7.27h-2.18v-17.74zM195.78 207.39c0-.84.65-1.49 1.49-1.49.79 0 1.44.65 1.44 1.49s-.65 1.49-1.44 1.49c-.84 0-1.49-.65-1.49-1.49zm.36 3.63h2.18v13.15h-2.18v-13.15zM211.67 216.73c0-2.69-1.46-4.06-3.67-4.06-2.23 0-3.77 1.39-3.77 4.22v7.27h-2.18v-13.15h2.18v1.87c.87-1.37 2.45-2.11 4.22-2.11 3.05 0 5.38 1.87 5.38 5.64v7.75h-2.16v-7.43zM222.83 210.8c2.4 0 4.13 1.2 4.9 2.62v-2.4h2.21v13.44c0 3.62-2.42 6.19-6.29 6.19-3.46 0-5.93-1.75-6.36-4.56h2.16c.48 1.58 2.04 2.66 4.2 2.66 2.33 0 4.08-1.49 4.08-4.3v-2.76c-.79 1.42-2.5 2.69-4.9 2.69-3.53 0-6.24-2.76-6.24-6.84 0-4.1 2.71-6.74 6.24-6.74zm.43 1.9c-2.4 0-4.44 1.75-4.44 4.85 0 3.1 2.04 4.92 4.44 4.92s4.46-1.8 4.46-4.9c.01-3.05-2.06-4.87-4.46-4.87zM233.49 221.15h2.4l-2.69 6.46h-1.46l1.75-6.46zM64.05 246.64c3.94 0 5.81 2.18 5.81 4.92 0 2.14-1.18 4.18-3.98 4.8l4.2 7.01h-2.62l-3.98-6.84h-2.64v6.84h-2.18v-16.73h5.39zm0 1.8h-3.22v6.34h3.22c2.47 0 3.55-1.34 3.55-3.22 0-1.89-1.06-3.12-3.55-3.12zM78.93 263.59c-3.74 0-6.5-2.64-6.5-6.82 0-4.15 2.66-6.77 6.5-6.77 3.82 0 6.31 2.69 6.31 6.29 0 .48-.02.86-.07 1.32H74.66c.17 2.66 2.04 4.13 4.27 4.13 1.97 0 3.22-1.01 3.7-2.42h2.35c-.68 2.39-2.79 4.27-6.05 4.27zm-4.25-7.76h8.3c.02-2.57-1.9-3.98-4.15-3.98-2.13 0-3.91 1.42-4.15 3.98zM88.6 252.02h-1.7v-1.8h1.7v-3.31h2.18v3.31h3.43v1.8h-3.43v7.75c0 1.3.48 1.75 1.82 1.75h1.61v1.85h-1.97c-2.33 0-3.65-.96-3.65-3.6v-7.75zM105.93 250.22h2.26l-7.92 19.35h-2.26l2.59-6.34-5.3-13.01h2.42l4.13 10.66 4.08-10.66zM117.47 250c3.53 0 6.24 2.64 6.24 6.74 0 4.08-2.71 6.84-6.24 6.84-2.4 0-4.1-1.3-4.92-2.64v8.66h-2.18v-19.39h2.18v2.42c.79-1.38 2.52-2.63 4.92-2.63zm-.45 1.9c-2.38 0-4.46 1.82-4.46 4.87 0 3.1 2.09 4.9 4.46 4.9 2.42 0 4.46-1.82 4.46-4.92 0-3.1-2.04-4.85-4.46-4.85zM132.28 263.59c-3.74 0-6.5-2.64-6.5-6.82 0-4.15 2.66-6.77 6.5-6.77 3.82 0 6.31 2.69 6.31 6.29 0 .48-.02.86-.07 1.32h-10.51c.17 2.66 2.04 4.13 4.27 4.13 1.97 0 3.22-1.01 3.7-2.42h2.35c-.67 2.39-2.79 4.27-6.05 4.27zm-4.25-7.76h8.3c.03-2.57-1.9-3.98-4.15-3.98-2.13 0-3.91 1.42-4.15 3.98zM154.98 250c3.55 0 6.24 2.64 6.24 6.74 0 4.08-2.71 6.84-6.24 6.84-2.4 0-4.1-1.2-4.92-2.64v2.42h-2.18V245.6h2.18v7.06c.84-1.46 2.6-2.66 4.92-2.66zm-.45 1.9c-2.38 0-4.46 1.82-4.46 4.87 0 3.1 2.09 4.9 4.46 4.9 2.42 0 4.46-1.82 4.46-4.92 0-3.1-2.04-4.85-4.46-4.85zM175.77 263.37h-2.18v-1.94c-.84 1.37-2.45 2.14-4.2 2.14-3.02 0-5.4-1.87-5.4-5.64v-7.71h2.16v7.42c0 2.66 1.46 4.03 3.67 4.03 2.26 0 3.77-1.39 3.77-4.22v-7.22h2.18v13.14zM179.1 246.59c0-.84.65-1.49 1.49-1.49.79 0 1.44.65 1.44 1.49s-.65 1.49-1.44 1.49c-.84 0-1.49-.65-1.49-1.49zm.36 3.63h2.18v13.15h-2.18v-13.15zM185.37 245.61h2.18v17.76h-2.18v-17.76zM196.72 250c2.06 0 3.96 1.06 4.87 2.57v-6.96h2.21v17.76h-2.21v-2.47c-.79 1.46-2.5 2.69-4.9 2.69-3.53 0-6.24-2.76-6.24-6.84 0-4.11 2.72-6.75 6.27-6.75zm.41 1.9c-2.4 0-4.44 1.75-4.44 4.85 0 3.1 2.04 4.92 4.44 4.92 2.4 0 4.46-1.8 4.46-4.9 0-3.05-2.06-4.87-4.46-4.87zM212.15 263.59c-3.07 0-5.23-1.68-5.38-4.08h2.26c.12 1.27 1.25 2.23 3.1 2.23 1.73 0 2.69-.86 2.69-1.94 0-2.93-7.78-1.22-7.78-6.12 0-2.02 1.9-3.67 4.82-3.67 2.9 0 4.82 1.56 4.97 4.13h-2.18c-.1-1.32-1.11-2.28-2.86-2.28-1.61 0-2.57.77-2.57 1.82 0 3.12 7.63 1.42 7.73 6.12 0 2.15-1.9 3.79-4.8 3.79zM226.91 252.02h-1.7v-1.8h1.7v-3.31h2.18v3.31h3.43v1.8h-3.43v7.75c0 1.3.48 1.75 1.82 1.75h1.61v1.85h-1.97c-2.33 0-3.65-.96-3.65-3.6v-7.75zM235.17 245.61h2.18v6.5c.86-1.39 2.5-2.14 4.34-2.14 2.93 0 5.26 1.87 5.26 5.64v7.75h-2.16v-7.44c0-2.69-1.46-4.06-3.67-4.06-2.23 0-3.77 1.39-3.77 4.22v7.27h-2.18v-17.74zM256.21 263.59c-3.74 0-6.5-2.64-6.5-6.82 0-4.15 2.66-6.77 6.5-6.77 3.82 0 6.31 2.69 6.31 6.29 0 .48-.02.86-.07 1.32h-10.51c.17 2.66 2.04 4.13 4.27 4.13 1.97 0 3.22-1.01 3.7-2.42h2.35c-.67 2.39-2.78 4.27-6.05 4.27zm-4.24-7.76h8.3c.02-2.57-1.9-3.98-4.15-3.98-2.14 0-3.91 1.42-4.15 3.98zM274 263.37h-2.18v-13.15H274v2.14c.74-1.46 2.16-2.38 4.25-2.38v2.26h-.58c-2.09 0-3.67.94-3.67 3.98v7.15zM286.45 263.59c-3.74 0-6.5-2.64-6.5-6.82 0-4.15 2.66-6.77 6.5-6.77 3.82 0 6.31 2.69 6.31 6.29 0 .48-.02.86-.07 1.32h-10.51c.17 2.66 2.04 4.13 4.27 4.13 1.97 0 3.22-1.01 3.7-2.42h2.35c-.67 2.39-2.78 4.27-6.05 4.27zm-4.24-7.76h8.3c.02-2.57-1.9-3.98-4.15-3.98-2.14 0-3.91 1.42-4.15 3.98zM300.3 263.59c-3.07 0-5.23-1.68-5.38-4.08h2.26c.12 1.27 1.25 2.23 3.1 2.23 1.73 0 2.69-.86 2.69-1.94 0-2.93-7.78-1.22-7.78-6.12 0-2.02 1.9-3.67 4.82-3.67 2.9 0 4.83 1.56 4.97 4.13h-2.18c-.1-1.32-1.1-2.28-2.86-2.28-1.61 0-2.57.77-2.57 1.82 0 3.12 7.63 1.42 7.73 6.12 0 2.15-1.89 3.79-4.8 3.79zM308.65 252.02h-1.71v-1.8h1.71v-3.31h2.18v3.31h3.43v1.8h-3.43v7.75c0 1.3.48 1.75 1.82 1.75h1.61v1.85h-1.97c-2.33 0-3.65-.96-3.65-3.6v-7.75zM317.6 263.51c-.84 0-1.49-.65-1.49-1.49s.65-1.49 1.49-1.49c.79 0 1.44.65 1.44 1.49 0 .85-.64 1.49-1.44 1.49z"/><g id="XMLID_15_"><path id="XMLID_18_" fill="#121212" d="M54.8 58.43v61.19h41.82V58.43H54.8zm34.3 53.68H62.31V65.95H89.1v46.16z"/><path id="XMLID_17_" fill="#121212" d="M103.4 119.62h7.51v-46.9l-7.51-7.51z"/><path id="XMLID_16_" fill="#121212" d="M117.7 79.51v40.11h7.51v-32.6z"/></g><path id="XMLID_12_" fill="#121212" d="M178.35 84.26c0 4.55-1.8 7.48-5.4 8.81l7.18 10.15h-7.79l-6.29-9.05h-4.38v9.05h-6.33V74.84h10.76c4.41 0 7.55.74 9.44 2.23 1.87 1.49 2.81 3.89 2.81 7.19zm-7.63 3.37c.78-.7 1.18-1.82 1.18-3.35s-.41-2.58-1.22-3.15-2.23-.85-4.26-.85h-4.75v8.4h4.63c2.16 0 3.63-.35 4.42-1.05z"/><path id="XMLID_10_" fill="#121212" d="M213.41 74.84v5.64h-14.12v5.84H212v5.4h-12.7v5.89h14.57v5.6h-20.9V74.84h20.44z"/><path id="XMLID_8_" fill="#121212" d="M239.63 80.32v22.89h-6.33V80.32h-8.04v-5.48h22.4v5.48h-8.03z"/><path id="XMLID_6_" fill="#121212" d="M272.63 103.21h-6.33v-11.2l-9.82-17.17h6.86l6.13 10.55 6.13-10.55h6.86l-9.82 17.17v11.2z"/><path id="XMLID_3_" fill="#121212" d="M313.16 77.38c1.99 1.69 2.99 4.29 2.99 7.79s-1.02 6.07-3.07 7.69-5.16 2.44-9.35 2.44h-3.77v7.91h-6.33V74.84h10.03c4.34 0 7.51.85 9.5 2.54zm-4.65 11.16c.75-.85 1.13-2.1 1.13-3.73s-.49-2.8-1.48-3.49c-.99-.69-2.52-1.03-4.61-1.03h-3.61v9.54h4.26c2.12-.01 3.55-.44 4.31-1.29z"/><path id="XMLID_1_" fill="#121212" d="M349.66 74.84v5.64h-14.12v5.84h12.7v5.4h-12.7v5.89h14.57v5.6h-20.9V74.84h20.45z"/><path fill="#8dbbff" d="M129.85 172h-72c-.28 0-.5-.22-.5-.5s.22-.5.5-.5h72c.28 0 .5.22.5.5s-.22.5-.5.5z"/><path fill="#8dbbff" d="M132.85 175c-1.93 0-3.5-1.57-3.5-3.5s1.57-3.5 3.5-3.5 3.5 1.57 3.5 3.5-1.57 3.5-3.5 3.5zm0-6a2.5 2.5 0 000 5 2.5 2.5 0 000-5z"/><path fill="#e9f3ff" d="M695.93 259.72l-90.23-4.73a2 2 0 01-1.89-2.1l5.26-100.33a2 2 0 012.1-1.89l90.23 4.73a2 2 0 011.89 2.1l-5.26 100.33a2 2 0 01-2.1 1.89z"/><path fill="#fff" d="M690.1 252.61l-90.23-4.73a2 2 0 01-1.89-2.1l5.26-100.33a2 2 0 012.1-1.89l90.23 4.73a2 2 0 011.89 2.1l-5.26 100.33c-.05 1.1-.99 1.94-2.1 1.89z"/><path fill="#aac4e2" d="M690.21 253.36h-.14l-90.23-4.73a2.757 2.757 0 01-2.6-2.89l5.26-100.33c.04-.73.36-1.41.91-1.9s1.25-.75 1.98-.7l90.23 4.73c1.51.08 2.68 1.38 2.6 2.89l-5.26 100.33a2.76 2.76 0 01-2.75 2.6zm-.07-1.5c.68.03 1.28-.49 1.31-1.18l5.26-100.33c.04-.69-.49-1.28-1.18-1.31l-90.23-4.73c-.35-.02-.65.1-.9.32s-.39.53-.41.86l-5.26 100.33c-.04.69.49 1.28 1.18 1.31l90.23 4.73z"/><circle fill="#1956af" opacity="0.15" cx="610.06" cy="148.62" r="1.68"/><circle fill="#1956af" opacity="0.15" cx="623.68" cy="149.34" r="1.68"/><circle fill="#1956af" opacity="0.15" cx="616.77" cy="148.98" r="1.68"/><path fill="#e1edff" d="M607.852 158.447l13.47.706-4.326 82.604-13.47-.705zM626.992 159.45l60.705 3.18-1.406 26.842-60.705-3.18zM623.633 223.542l60.705 3.18-.902 17.225-60.705-3.18z"/><path fill="#1956af" opacity="0.2" d="M684.8 196.2h-.05l-57.69-3.02c-.55-.03-.97-.5-.95-1.05.03-.55.46-.98 1.05-.95l57.69 3.02c.55.03.97.5.95 1.05a1 1 0 01-1 .95zM684.4 203.89h-.05l-57.69-3.02c-.55-.03-.97-.5-.95-1.05.03-.55.47-.97 1.05-.95l57.69 3.02c.55.03.97.5.95 1.05-.03.54-.48.95-1 .95zM683.99 211.59h-.05l-57.69-3.02c-.55-.03-.97-.5-.95-1.05.03-.55.48-.99 1.05-.95l57.69 3.02c.55.03.97.5.95 1.05-.03.53-.47.95-1 .95zM683.64 218.32h-.05l-57.69-3.02c-.55-.03-.97-.5-.95-1.05.03-.55.47-.99 1.05-.95l57.69 3.02c.55.03.97.5.95 1.05-.03.53-.47.95-1 .95z"/><path fill="#1956af" d="M533 481.52h.04l-.15-.86-.09-.64h-.02l-3.4-19.54h-17.75l-.15.55c-2.89 10.54-23.14 13.09-23.93 13.19-3.18-.05-9.15 1.25-9.38 6.51-.23 5.21 3 5.51 3.19 5.52l50.26-.06c.24.04.55-.02.83-.25.46-.39.93-1.25.55-4.42zm-1.48 3.17l-50.09.06c-.08-.01-1.93-.26-1.76-3.96.19-4.26 5.24-4.95 7.17-5.06v5.78h44.65c.27 2.11.12 2.91.03 3.18z"/><path fill="#e9f3ff" d="M428.8 299.25l-51.52 8.58c-1.09.18-2.12-.55-2.3-1.64l-11.71-70.31c-.18-1.09.55-2.12 1.64-2.3l51.52-8.58c1.09-.18 2.12.55 2.3 1.64l11.71 70.31c.18 1.08-.55 2.11-1.64 2.3z"/><path fill="#1956af" d="M535.4 343.8h-58.61c-1.17 0-2.23-.69-2.7-1.76l-22.81-51.97a2.938 2.938 0 011.42-3.84l.32-.15c.73-.35 1.54-.39 2.29-.11s1.35.84 1.68 1.57l21.91 49.51c.23.52.75.86 1.32.86h55.17c1.62 0 2.94 1.32 2.94 2.94s-1.31 2.95-2.93 2.95zm-81.1-56.51c-.21 0-.43.05-.62.14l-.32.15a1.44 1.44 0 00-.7 1.88l22.81 51.96c.23.52.75.86 1.32.86h58.61a1.44 1.44 0 000-2.88h-55.17a2.94 2.94 0 01-2.69-1.75l-21.91-49.51c-.16-.36-.45-.63-.82-.77-.17-.05-.34-.08-.51-.08z"/><path fill="#fff" d="M422.09 294.91l-51.52 8.58c-1.09.18-2.12-.55-2.3-1.64l-11.71-70.31c-.18-1.09.55-2.12 1.64-2.3l51.52-8.58c1.09-.18 2.12.55 2.3 1.64l11.71 70.31c.18 1.09-.55 2.12-1.64 2.3z"/><path fill="#aac4e2" d="M370.23 304.27c-.57 0-1.12-.18-1.59-.51-.6-.43-.99-1.06-1.11-1.79l-11.71-70.31c-.12-.72.05-1.45.48-2.05s1.06-.99 1.79-1.11l51.52-8.58c1.5-.25 2.92.76 3.17 2.26l11.71 70.31c.12.72-.05 1.45-.47 2.05s-1.06.99-1.79 1.11l-51.52 8.58c-.17.03-.33.04-.48.04zm39.81-82.89c-.07 0-.14.01-.21.02l-51.52 8.58c-.68.11-1.14.76-1.03 1.44l11.71 70.31c.05.33.23.62.51.81.27.19.6.27.93.22l51.52-8.58c.68-.11 1.14-.76 1.03-1.44l-11.71-70.31c-.1-.61-.63-1.05-1.23-1.05z"/><g opacity=".2"><path fill="#1956af" d="M367.678 243.177l26.84-4.465.328 1.973-26.84 4.465zM368.717 249.435l38.47-6.4.328 1.973-38.47 6.4zM369.908 256.595l38.47-6.4.328 1.973-38.47 6.4zM370.957 262.854l38.47-6.4.328 1.972-38.47 6.4zM371.997 269.114l38.47-6.4.328 1.973-38.47 6.4zM373.037 275.374l38.47-6.4.328 1.973-38.47 6.4zM374.237 282.532l38.47-6.4.328 1.973-38.47 6.4zM375.277 288.793l38.47-6.4.328 1.973-38.47 6.4z"/></g><path fill="#e9f3ff" d="M541.66 229.7l-92.7 4.86a2 2 0 01-2.1-1.89l-3.51-67.05a2 2 0 011.89-2.1l92.7-4.86a2 2 0 012.1 1.89l3.51 67.05a2 2 0 01-1.89 2.1z"/><path fill="#fff" d="M535.77 223.2l-92.7 4.86a2 2 0 01-2.1-1.89l-3.51-67.05a2 2 0 011.89-2.1l92.7-4.86a2 2 0 012.1 1.89l3.51 67.05c.06 1.11-.79 2.05-1.89 2.1z"/><path fill="#aac4e2" d="M442.95 228.82c-.68 0-1.33-.25-1.84-.71a2.73 2.73 0 01-.91-1.9l-3.51-67.05c-.04-.73.21-1.44.7-1.98a2.73 2.73 0 011.9-.91l92.71-4.86c.73-.04 1.44.21 1.98.7.55.49.87 1.17.91 1.9l3.51 67.05c.04.73-.21 1.44-.7 1.98s-1.17.87-1.9.91l-92.7 4.86c-.05 0-.1.01-.15.01zm89.2-75.91h-.07l-92.71 4.86a1.25 1.25 0 00-1.18 1.31l3.51 67.05a1.25 1.25 0 001.31 1.18l92.71-4.86a1.25 1.25 0 001.18-1.31l-3.51-67.05c-.02-.33-.16-.64-.41-.86-.23-.21-.52-.32-.83-.32z"/><circle fill="#1956af" opacity="0.15" cx="444.75" cy="161.68" r="1.73"/><circle fill="#1956af" opacity="0.15" cx="458.73" cy="160.95" r="1.73"/><circle fill="#1956af" opacity="0.15" cx="451.64" cy="161.32" r="1.73"/><path fill="#e1edff" d="M443.54 171.978l13.83-.725 2.619 49.99-13.83.725zM516.063 168.183l13.83-.724 1.31 24.995-13.83.724zM463.19 170.947l47.204-2.472 1.443 27.542-47.204 2.472z"/><path fill="#1956af" opacity="0.2" d="M466.51 204.95a1 1 0 01-.05-2l44.16-2.31c.56-.03 1.02.4 1.05.95.03.55-.4 1.02-.95 1.05l-44.16 2.31h-.05zM466.9 212.48a1 1 0 01-.05-2l44.16-2.31c.56-.04 1.02.4 1.05.95.03.55-.4 1.02-.95 1.05l-44.16 2.31h-.05zM467.26 219.29a1 1 0 01-.05-2l44.16-2.31c.56-.03 1.02.4 1.05.95.03.55-.4 1.02-.95 1.05l-44.16 2.31h-.05z"/><path fill="#aac4e2" d="M428.36 326.64c-8.18 0-18.94-1.69-24.92-9.51l1.19-.91c9.73 12.72 34.07 8.04 34.32 7.99l.29 1.47c-.44.08-4.99.96-10.88.96zM380.89 205.72l-1.28-.79c.14-.22 13.94-22.22 41.89-24.29l.11 1.5c-27.16 2.01-40.58 23.36-40.72 23.58zM592.17 192.75c-17.54-6.46-38.85-7.38-39.06-7.39l.06-1.5c.21.01 21.75.94 39.52 7.48l-.52 1.41zM569.55 154.43l-.01-1.5-2.77.01-.01-2.89h-1.5l.01 2.9-2.89.01v1.5l2.9-.01.01 3.09 1.5-.01-.01-3.09zM377.6 158.2l-1.07-1.06-2.04 2.06-2.05-2.04-1.06 1.06 2.06 2.04-2.18 2.19 1.07 1.06 2.17-2.19 1.97 1.95 1.06-1.06-1.97-1.96zM350.32 299.35l-1.06-1.05-2.04 2.05-2.06-2.04-1.06 1.07 2.06 2.04-2.17 2.19 1.06 1.06 2.17-2.2 1.97 1.95 1.06-1.06-1.97-1.95zM495.19 120.59c-1.88 0-3.41-1.53-3.41-3.41s1.53-3.41 3.41-3.41 3.41 1.53 3.41 3.41-1.53 3.41-3.41 3.41zm0-5.33a1.91 1.91 0 100 3.82 1.91 1.91 0 000-3.82zM722.94 236.02c-1.88 0-3.41-1.53-3.41-3.41s1.53-3.41 3.41-3.41 3.41 1.53 3.41 3.41-1.53 3.41-3.41 3.41zm0-5.32a1.91 1.91 0 100 3.82 1.91 1.91 0 000-3.82zM602.76 130.56v-9.44l8.18 4.72-8.18 4.72zm1.5-6.85v4.25l3.68-2.12-3.68-2.13z"/><path fill="#e9f3ff" d="M540.5 301.53h-48.6c-1.1 0-2-.9-2-2v-32.28c0-1.1.9-2 2-2h48.6c1.1 0 2 .9 2 2v32.28a2 2 0 01-2 2z"/><path d="M535.97 296.09h-48.6c-1.1 0-2-.9-2-2v-32.28c0-1.1.9-2 2-2h48.6c1.1 0 2 .9 2 2v32.28c0 1.1-.9 2-2 2z" fill="#b3d2ff"/><g><path fill="#fff" d="M492.37 265.99l3.75 3.4-3.75 3.41-.86-.95 2.76-2.45-2.76-2.47.86-.94z"/></g><path fill="#fff" d="M500.78 267.97h29.93v2.72h-29.93zM500.78 275.23h19.05v2.72h-19.05z"/><path d="M323.05 452.84s-23.79-28.35-22.79-52.01c.99-23.66 5.58-41.88 5.58-41.88s4.58-4.54 12.91 28.36.4 44.04 2.34 51.28c1.94 7.25 1.96 14.25 1.96 14.25z" fill="#84cec0"/><path fill="#5abfac" d="M318.69 436.09s-10.18-38.71 13.88-63.93c0 0 11.11 45.53-12.57 79.14l-1.31-15.21z"/><path fill="#1956af" opacity="0.15" d="M303.09 450.33l4.61 35.92h24.78l4.39-35.92z"/><path fill="#1956af" opacity="0.15" d="M303.67 454.48h32.64l-.72 4.23-30.71 2.48z"/><path fill="#5abfac" d="M318.6 445.32c-.06-.6-5.72-59.72-7.45-66.7l.97-.24c1.75 7.05 7.24 64.4 7.47 66.84l-.99.1z"/><path d="M321.7 445.31c-1.17-16.25 7.75-56.13 7.84-56.53l.98.22c-.09.4-8.97 40.14-7.82 56.24l-1 .07z" fill="#36ad99"/><path fill="#dde6f3" d="M337.85 454.57H301.8c-.55 0-1-.45-1-1v-7.22c0-.55.45-1 1-1h36.05c.55 0 1 .45 1 1v7.22c0 .55-.45 1-1 1z"/><path fill="#1956af" opacity="0.15" d="M422.66 438.55c0-2.14-.79-4.15-2.18-5.92l1.31-9.75c.16-1.16-1.17-1.94-2.11-1.24l-7.45 5.56c-2.54-.86-5.39-1.35-8.42-1.35-4.11 0-7.91.9-11.01 2.4l-7.84-5.85c-.83-.62-1.99.15-1.73 1.16l2.76 10.89c-.65 1.29-1.02 2.66-1.02 4.1 0 5.42 5.04 10.03 12.13 11.85-1.83 2.68-5.41 7.01-12.13 12.39-4.77 3.81-6.81 8.48-7.56 12.64-3.66-1.34-8.68-5.52-4.36-18.6 6.35-19.24-5.39-25.78-9.81-23.85-4.42 1.92 7.5 5.96 6.35 14.43-1.15 8.46-8.5 33.6 7.54 34.69.22 2.52.73 4.16.73 4.16h38.73c1.4 0-.07-8.85-.07-8.85l-4.23-27.52c6.14-2.1 10.37-6.38 10.37-11.34z"/><path fill="#1956af" d="M546.04 351.7H382.26c-1.52 0-2.75-1.23-2.75-2.75v-3.9c0-1.52 1.23-2.75 2.75-2.75h163.78c1.52 0 2.75 1.23 2.75 2.75v3.9c0 1.51-1.24 2.75-2.75 2.75zm-163.78-7.9c-.69 0-1.25.56-1.25 1.25v3.9c0 .69.56 1.25 1.25 1.25h163.78c.69 0 1.25-.56 1.25-1.25v-3.9c0-.69-.56-1.25-1.25-1.25H382.26z"/><path fill="#1956af" d="M473.74 486.25h-5.8V351.64h-7.57v134.61h-28.05c-.41 0-.75-.34-.75-.75s.34-.75.75-.75h26.55V350.14h10.57v134.61h4.3c.41 0 .75.34.75.75s-.34.75-.75.75z"/><g><path fill="#fff" d="M622.15 360.36h-76.24c-7 0-12.21 6.47-10.72 13.31l17.02 78.17h16.16l-2.52-60.46h83.79c13.95 0 23.92-13.49 19.84-26.83l-1.45-4.74-45.88.55z"/><path fill="#1956af" d="M569.14 452.59H551.6l-.13-.59-17.02-78.17c-.76-3.48.09-7.07 2.33-9.85a11.66 11.66 0 019.13-4.37h76.24l46.43-.56 1.62 5.28c2.02 6.59.83 13.54-3.27 19.08s-10.4 8.72-17.29 8.72h-83.01l2.51 60.46zm-16.33-1.5h14.77l-2.52-60.46h84.58c6.41 0 12.27-2.96 16.08-8.11 3.81-5.15 4.92-11.62 3.04-17.75l-1.29-4.21-45.32.55h-76.24c-3.11 0-6.01 1.39-7.96 3.81a10.184 10.184 0 00-2.03 8.59l16.89 77.58z"/></g><path fill="#1956af" d="M691.99 486.25H586.25v-1.5h104.24v-92.76H560.04v-1.5h131.95z"/><path fill="#fff" d="M528.23 475.72s-8.41-.17-8.67 5.8c-.2 4.54 2.44 4.74 2.44 4.74l50.32-.06s1.21.41.46-4.68h-44.56v-5.8z"/><path fill="#1956af" d="M573.64 481.52h.01l-.12-.83v-.03l-.06-.44-2.9-19.74h-19.13l-.15.55c-2.9 10.54-22.34 13.09-23.1 13.19-3.19-.05-9.14 1.25-9.37 6.52-.23 5.21 3 5.51 3.19 5.52l50.26-.06c.24.04.55-.02.83-.25.45-.4.92-1.26.54-4.43zm-1.48 3.17l-50.09.06c-.08-.01-1.92-.26-1.76-3.96.19-4.26 5.24-4.95 7.17-5.06v5.78h44.65c.27 2.11.12 2.91.03 3.18zM550.95 445.32h17.17v1.5h-17.17z"/><path fill="#1956af" d="M568.96 462.04H553.4l-1.23-10.95h15.65l1.14 10.95zm-14.22-1.5h12.55l-.83-7.95h-12.62l.9 7.95z"/><g><path fill="#fff" d="M516.33 451.84l18.78-82.52 9.89 49.42-14.06 33.1z"/><path fill="#1956af" d="M530.94 452.59h-14.61c-.23 0-.44-.1-.59-.28a.757.757 0 01-.15-.63l18.79-82.53c.08-.34.38-.58.73-.58h.01c.35 0 .66.26.73.6l9.88 49.43c.03.15.01.3-.04.44l-14.06 33.1c-.12.27-.39.45-.69.45zm-13.67-1.5h13.18l13.77-32.43-9.15-45.76-17.8 78.19z"/></g><path fill="#1956af" d="M518.13 445.32h15.26v1.5h-15.26z"/><path fill="#fff" d="M517.22 451.84l-3.29 9.45h13.38l2.5-9.45z"/><path fill="#1956af" d="M527.89 462.04h-15.01l3.81-10.95h14.09l-2.89 10.95zm-12.9-1.5h11.74l2.1-7.95h-11.08l-2.76 7.95zM458.86 350.2v8.19l10.57 5.63V350.2zM545.73 418.59l-9.88-49.43a.74.74 0 00-.73-.6h-.01c-.35 0-.65.24-.73.58l-5.35 23.53c-.02.11-.02.22 0 .33l8.97 40.62c.07.32.34.55.66.58h.07c.3 0 .57-.18.69-.46l6.26-14.73c.07-.11.08-.27.05-.42z"/><g><path fill="#fff" d="M637.51 282.39l-5.35-14.33-12.09-22.83c2.3-4.56 3.43-9.18 3.14-12.39-.84-9.27-24.26-25.59-38.56-2.98 0 0-2.51 29.72 14.39 30.96 3.7.27 4.41-.27 7.48-1.64l6.96 19.44 24.03 3.77z"/><path fill="#1956af" d="M638.66 283.33l-25.74-4.04-6.83-19.09-.11.05c-2.46 1.11-3.48 1.58-7 1.32-3.66-.27-6.72-1.83-9.12-4.64-7.43-8.7-6.03-26.39-5.96-27.13l.02-.18.1-.16c8.07-12.76 18.33-12.49 23.73-11.18 8.98 2.17 15.75 9.38 16.21 14.49.3 3.32-.83 7.95-3.04 12.45l11.91 22.49 5.83 15.62zm-24.63-5.38l22.33 3.5-4.9-13.12-12.23-23.09.17-.35c2.2-4.37 3.34-8.85 3.06-11.99-.42-4.6-6.95-11.21-15.07-13.17-4.98-1.2-14.45-1.44-22.01 10.37-.13 1.89-1.01 18.08 5.62 25.86 2.13 2.49 4.85 3.87 8.09 4.11 3.14.23 3.93-.13 6.27-1.19l1.6-.71 7.07 19.78z"/></g><g><path fill="#fff" d="M529.77 328.24l57.26-14.97 6.71 8.92-58.81 8.65z"/><path fill="#1956af" d="M534.8 331.62l-7.14-3.61 59.67-15.59 7.77 10.33-60.3 8.87zm-2.93-3.16l3.18 1.61 57.32-8.44-5.64-7.5-54.86 14.33z"/></g><g><path fill="#fff" d="M591.96 318.83l-59.51 9.68c-.28.05-.57.05-.86 0l-15.48-2.54a2.65 2.65 0 00-1.42.16l-15.12 6.06a2.676 2.676 0 00-1.67 2.48c0 1.59 1.38 2.83 2.96 2.65l19.24-2.12c.28-.03.56-.02.83.04l11.41 2.35c.18.04.36.05.54.05h57.5c1.26 0 2.47-.49 3.37-1.37l6.9-6.75-8.69-10.69z"/><path fill="#1956af" d="M590.36 338.39h-57.5c-.24 0-.47-.02-.69-.07l-11.41-2.35c-.2-.04-.4-.05-.6-.03l-19.24 2.12c-.96.1-1.93-.2-2.65-.85a3.427 3.427 0 01-1.14-2.54c0-1.4.84-2.65 2.15-3.17l15.12-6.06c.58-.23 1.21-.3 1.82-.2l15.48 2.54c.2.03.41.03.62 0l59.94-9.75 9.38 11.55-7.39 7.23a5.516 5.516 0 01-3.89 1.58zm-69.98-3.96c.23 0 .46.02.69.07l11.41 2.35c.12.03.25.04.39.04h57.5c1.07 0 2.08-.41 2.85-1.16l6.41-6.27-7.97-9.82-59.08 9.61c-.36.06-.73.06-1.1 0L516 326.71c-.34-.06-.7-.02-1.02.11l-15.12 6.06c-.73.29-1.2.99-1.2 1.78 0 .55.23 1.06.64 1.43.41.37.93.54 1.49.48l19.24-2.12c.1-.01.22-.02.35-.02z"/></g><g><path fill="#dde6f3" d="M587.03 313.27l21.09-31.4-13.25 41.84z"/><path fill="#1956af" d="M595.15 325.33l-9.04-12.03 24.3-36.19-15.26 48.22zm-7.2-12.08l6.65 8.85 11.22-35.47-17.87 26.62z"/></g><g><path fill="#dde6f3" d="M674.46 356.23l-36.97-77.75-8.63-16.67-18.4 8.38c-1.9 5.32-2.44 7.73-4.76 14.73l-15.37 32.7 10.3 13.81L612.91 321l9.24 39.37h49.7c2.12-.01 3.52-2.22 2.61-4.14z"/><path fill="#1956af" d="M671.85 361.11h-50.29l-9.09-38.75-11.95 10.16-11.05-14.81 15.56-33.1c.99-3.01 1.67-5.22 2.27-7.16.75-2.43 1.4-4.52 2.46-7.5l.11-.3 19.34-8.81 8.96 17.31 36.98 77.77c.54 1.14.46 2.45-.21 3.51a3.663 3.663 0 01-3.09 1.68zm-49.11-1.5h49.11c.74 0 1.42-.37 1.81-1 .4-.63.44-1.4.12-2.07l-36.97-77.75-8.29-16.02-17.46 7.96c-.99 2.79-1.61 4.81-2.33 7.14-.6 1.95-1.28 4.16-2.32 7.27l-15.21 32.37 9.56 12.81 12.6-10.71 9.38 40z"/></g><path fill="#1956af" d="M612.08 320.76l4.24 18.04 17.03-39.53zM619.42 220.98c-3.6-4.18-8.7-6.04-14.47-5.44h-.04c-15.56.8-23.45 7.03-26.76 10.67-1.18 1.3-2.07 4.02-1.44 6.15.43 1.46 1.5 2.46 3.1 2.88l3.92.18v.01l.54.02h.06l20.46.67 1.87 10.05.48-2.69c.01-.06 1.07-5.81 3.79-7.56.74-.47 1.51-.6 2.37-.38 3.86 1 5.49 11.67 5.78 15.69l.13 1.7.81-1.5c5.91-10.94 5.67-23.19-.6-30.45zM605.61 258.87l3.02 8.45 6.05-14.32z"/><circle fill="#fff" cx="559.09" cy="468.69" r="2.95"/><path fill="#fff" d="M536.803 473.693l.972-.236.585 2.41-.972.236zM540.939 472.003l.924-.38 1.218 2.958-.925.38zM544.364 470.262l.828-.56 1.582 2.334-.828.561zM547.68 467.812l.708-.707 1.716 1.72-.707.707zM496.203 473.66l.971-.236.585 2.41-.972.236zM500.3 472.002l.924-.381 1.218 2.959-.925.38zM503.732 470.212l.828-.56 1.582 2.333-.827.562zM507.48 468.255l.707-.707 1.717 1.72-.707.706z"/></svg>
