<svg xmlns="http://www.w3.org/2000/svg" width="150" height="31" viewBox="0 0 150 31"><path fill="#fff" d="M0 0v31h21.24V0H0zm17.43 27.19H3.82V3.81h13.61v23.38zM24.69 31h3.81V7.24l-3.81-3.81zM31.95 10.68V31h3.82V14.48zM62.76 13.08c0 2.3-.91 3.79-2.74 4.46l3.65 5.14h-3.96l-3.2-4.59h-2.23v4.59h-3.22V8.31h5.46c2.24 0 3.84.38 4.79 1.13.97.76 1.45 1.97 1.45 3.64zm-3.88 1.71c.4-.36.6-.92.6-1.7 0-.77-.21-1.31-.62-1.59s-1.13-.43-2.16-.43h-2.41v4.26h2.35c1.09 0 1.84-.18 2.24-.54zM80.57 8.31v2.86H73.4v2.96h6.45v2.73H73.4v2.98h7.4v2.84H70.18V8.31h10.39zM93.89 11.09v11.6h-3.22v-11.6h-4.08V8.31h11.38v2.78h-4.08zM110.65 22.69h-3.22v-5.67l-4.99-8.7h3.48l3.11 5.35 3.11-5.35h3.48l-4.99 8.7v5.67zM131.23 9.6c1.01.86 1.52 2.17 1.52 3.95 0 1.78-.52 3.07-1.56 3.9-1.04.82-2.62 1.23-4.75 1.23h-1.92v4.01h-3.22V8.31h5.09c2.22 0 3.83.43 4.84 1.29zm-2.36 5.65c.38-.43.58-1.06.58-1.89 0-.83-.25-1.42-.75-1.77-.5-.35-1.28-.52-2.34-.52h-1.83v4.83h2.16c1.07 0 1.8-.21 2.18-.65zM149.77 8.31v2.86h-7.17v2.96h6.45v2.73h-6.45v2.98h7.4v2.84h-10.62V8.31h10.39z"/></svg>
