<svg viewBox="0 0 194 186" fill="currentColor" xmlns="http://www.w3.org/2000/svg">
<path d="M189.83 73.7303L189.56 73.0403L163.42 4.82032C162.888 3.48324 161.946 2.349 160.73 1.58032C159.513 0.824706 158.093 0.460777 156.662 0.537673C155.232 0.614569 153.859 1.12859 152.73 2.01032C151.613 2.91737 150.803 4.14646 150.41 5.53032L132.76 59.5303H61.2899L43.6399 5.53032C43.2571 4.13892 42.4453 2.90367 41.3199 2.00032C40.1907 1.11858 38.8181 0.604567 37.3875 0.527671C35.9569 0.450775 34.5371 0.814704 33.3199 1.57032C32.1062 2.3421 31.1653 3.47535 30.6299 4.81032L4.43991 73.0003L4.17991 73.6903C0.416933 83.5224 -0.0475445 94.3113 2.8565 104.43C5.76055 114.549 11.8757 123.45 20.2799 129.79L20.3699 129.86L20.6099 130.03L60.4299 159.85L80.1299 174.76L92.1299 183.82C93.5336 184.886 95.2475 185.463 97.0099 185.463C98.7723 185.463 100.486 184.886 101.89 183.82L113.89 174.76L133.59 159.85L173.65 129.85L173.75 129.77C182.135 123.429 188.236 114.537 191.136 104.432C194.035 94.3266 193.577 83.553 189.83 73.7303Z" />
</svg>