<svg xmlns="http://www.w3.org/2000/svg" viewBox="0 0 1280 640" overflow="visible"><path fill="#e1edff" d="M0 0h1280v640H0z"/><path d="M1280 323.19V640H440.99c1.78-98.1 66.97-179.5 153.39-198.89 32.24-147.43 155.46-257.19 302.58-257.19 110.84 0 208.13 62.33 263.15 156.12 23.99-13.85 51.43-21.74 80.6-21.74 13.52 0 26.68 1.68 39.29 4.89z" fill="#f5faff"/><path fill="#fff" d="M835.44 623.24s-13.73-.27-14.15 9.46c-.32 7.42 3.99 7.73 3.99 7.73l82.13-.1s1.98.68.76-7.63h-72.72v-9.46z"/><path fill="#151928" d="M96.2 318.8h3.57l5.59 21.73 6.17-21.73h3.75l5.88 21.65 5.62-21.65h3.6l-7.43 25.62h-3.75l-5.95-20.62-6.18 20.62-3.71.04-7.16-25.66zM137.41 344.42h-3.35v-20.15h3.35v3.27c1.14-2.24 3.31-3.64 6.51-3.64v3.46h-.88c-3.2 0-5.63 1.43-5.63 6.1v10.96zM147.22 318.72c0-1.29.99-2.28 2.28-2.28 1.21 0 2.21.99 2.21 2.28 0 1.29-.99 2.28-2.21 2.28-1.28 0-2.28-.99-2.28-2.28zm.56 5.56h3.35v20.15h-3.35v-20.15zM157.55 327.03h-2.61v-2.76h2.61v-5.07h3.34v5.07h5.26v2.76h-5.26v11.87c0 1.99.74 2.68 2.79 2.68h2.47v2.83h-3.02c-3.57 0-5.59-1.47-5.59-5.51v-11.87zM178.91 344.75c-5.73 0-9.96-4.04-9.96-10.44 0-6.36 4.08-10.37 9.96-10.37 5.85 0 9.67 4.12 9.67 9.63 0 .74-.04 1.32-.11 2.02h-16.1c.26 4.08 3.13 6.32 6.54 6.32 3.01 0 4.93-1.55 5.66-3.71h3.6c-1.02 3.69-4.26 6.55-9.26 6.55zm-6.51-11.87h12.72c.04-3.93-2.9-6.1-6.36-6.1-3.26 0-5.99 2.17-6.36 6.1zM211.12 323.95c3.75 0 6.32 1.91 7.5 4.01v-3.68H222v20.15h-3.38v-3.75c-1.21 2.17-3.82 4.08-7.54 4.08-5.37 0-9.52-4.23-9.52-10.48 0-6.29 4.15-10.33 9.56-10.33zm.66 2.9c-3.68 0-6.8 2.68-6.8 7.43 0 4.74 3.12 7.54 6.8 7.54s6.84-2.76 6.84-7.5c0-4.68-3.17-7.47-6.84-7.47zM242.4 333.03c0-4.12-2.24-6.21-5.62-6.21-3.42 0-5.77 2.13-5.77 6.47v11.14h-3.34v-20.15H231v2.87c1.33-2.1 3.75-3.24 6.47-3.24 4.67 0 8.24 2.87 8.24 8.64v11.87h-3.31v-11.39zM265.08 324.28h3.46l-12.13 29.63h-3.46l3.97-9.7-8.12-19.93h3.71l6.32 16.32 6.25-16.32zM272.61 327.03H270v-2.76h2.61v-5.07h3.34v5.07h5.26v2.76h-5.26v11.87c0 1.99.74 2.68 2.79 2.68h2.47v2.83h-3.02c-3.57 0-5.59-1.47-5.59-5.51v-11.87zM285.26 317.22h3.34v9.96c1.33-2.13 3.82-3.27 6.66-3.27 4.48 0 8.05 2.87 8.05 8.64v11.87H300v-11.4c0-4.12-2.24-6.21-5.62-6.21-3.42 0-5.77 2.13-5.77 6.47v11.14h-3.34v-27.2zM308.23 318.72c0-1.29.99-2.28 2.28-2.28 1.21 0 2.2.99 2.2 2.28 0 1.29-.99 2.28-2.2 2.28-1.28 0-2.28-.99-2.28-2.28zm.55 5.56h3.35v20.15h-3.35v-20.15zM332.57 333.03c0-4.12-2.24-6.21-5.62-6.21-3.42 0-5.77 2.13-5.77 6.47v11.14h-3.34v-20.15h3.34v2.87c1.33-2.1 3.75-3.24 6.47-3.24 4.67 0 8.24 2.87 8.24 8.64v11.87h-3.31v-11.39zM349.66 323.95c3.68 0 6.32 1.84 7.5 4.01v-3.68h3.38v20.59c0 5.55-3.71 9.48-9.63 9.48-5.29 0-9.08-2.68-9.74-6.99h3.31c.73 2.43 3.12 4.08 6.43 4.08 3.57 0 6.25-2.28 6.25-6.58v-4.23c-1.21 2.17-3.82 4.12-7.5 4.12-5.4 0-9.56-4.23-9.56-10.48 0-6.28 4.16-10.32 9.56-10.32zm.66 2.9c-3.68 0-6.8 2.68-6.8 7.43 0 4.74 3.13 7.54 6.8 7.54 3.68 0 6.84-2.76 6.84-7.5 0-4.68-3.16-7.47-6.84-7.47zM365.98 339.79h3.68l-4.12 9.89h-2.24l2.68-9.89zM106.46 378.84c6.03 0 8.9 3.35 8.9 7.54 0 3.27-1.8 6.4-6.1 7.35l6.43 10.74h-4.01l-6.1-10.48h-4.04v10.48h-3.35v-25.62h8.27zm0 2.76h-4.93v9.71h4.93c3.79 0 5.44-2.06 5.44-4.93 0-2.91-1.62-4.78-5.44-4.78zM129.25 404.79c-5.73 0-9.96-4.04-9.96-10.44 0-6.36 4.08-10.37 9.96-10.37 5.85 0 9.67 4.12 9.67 9.63 0 .74-.04 1.32-.11 2.02h-16.1c.26 4.08 3.13 6.32 6.55 6.32 3.01 0 4.93-1.55 5.66-3.71h3.6c-1.03 3.69-4.27 6.55-9.27 6.55zm-6.51-11.87h12.72c.04-3.93-2.9-6.1-6.36-6.1-3.27 0-5.99 2.17-6.36 6.1zM144.06 387.08h-2.61v-2.76h2.61v-5.07h3.35v5.07h5.26v2.76h-5.26v11.87c0 1.98.74 2.68 2.79 2.68h2.46v2.83h-3.01c-3.57 0-5.59-1.47-5.59-5.51v-11.87zM170.61 384.32h3.46l-12.13 29.63h-3.46l3.97-9.7-8.12-19.93h3.71l6.32 16.32 6.25-16.32zM188.29 383.99c5.4 0 9.56 4.04 9.56 10.33 0 6.25-4.15 10.48-9.56 10.48-3.68 0-6.29-1.98-7.54-4.04v13.27h-3.35v-29.7h3.35v3.71c1.21-2.14 3.86-4.05 7.54-4.05zm-.7 2.9c-3.64 0-6.84 2.79-6.84 7.46 0 4.74 3.2 7.5 6.84 7.5 3.71 0 6.84-2.79 6.84-7.54 0-4.73-3.13-7.42-6.84-7.42zM210.97 404.79c-5.73 0-9.96-4.04-9.96-10.44 0-6.36 4.08-10.37 9.96-10.37 5.85 0 9.67 4.12 9.67 9.63 0 .74-.04 1.32-.11 2.02h-16.1c.26 4.08 3.13 6.32 6.54 6.32 3.01 0 4.93-1.55 5.66-3.71h3.6c-1.03 3.69-4.26 6.55-9.26 6.55zm-6.51-11.87h12.72c.04-3.93-2.9-6.1-6.36-6.1-3.27 0-5.99 2.17-6.36 6.1zM245.74 383.99c5.44 0 9.56 4.04 9.56 10.33 0 6.25-4.15 10.48-9.56 10.48-3.68 0-6.29-1.84-7.54-4.04v3.71h-3.35v-27.21h3.35v10.81c1.29-2.24 3.98-4.08 7.54-4.08zm-.7 2.9c-3.64 0-6.84 2.79-6.84 7.46 0 4.74 3.2 7.5 6.84 7.5 3.71 0 6.84-2.79 6.84-7.54 0-4.73-3.12-7.42-6.84-7.42zM277.58 404.46h-3.35v-2.98c-1.29 2.1-3.75 3.27-6.43 3.27-4.63 0-8.27-2.87-8.27-8.64v-11.8h3.31v11.36c0 4.08 2.24 6.18 5.63 6.18 3.46 0 5.77-2.13 5.77-6.47v-11.07h3.35v20.15zM282.69 378.77c0-1.29.99-2.28 2.28-2.28 1.21 0 2.2.99 2.2 2.28s-.99 2.28-2.2 2.28c-1.29 0-2.28-1-2.28-2.28zm.55 5.55h3.35v20.15h-3.35v-20.15zM292.28 377.26h3.34v27.21h-3.34v-27.21zM309.67 383.99c3.16 0 6.07 1.62 7.46 3.93v-10.66h3.38v27.21h-3.38v-3.79c-1.21 2.24-3.82 4.12-7.5 4.12-5.4 0-9.56-4.23-9.56-10.48 0-6.29 4.16-10.33 9.6-10.33zm.62 2.9c-3.68 0-6.8 2.68-6.8 7.43 0 4.74 3.12 7.54 6.8 7.54 3.68 0 6.84-2.76 6.84-7.5 0-4.67-3.16-7.47-6.84-7.47zM333.3 404.79c-4.71 0-8.01-2.57-8.23-6.25h3.46c.18 1.95 1.91 3.42 4.74 3.42 2.65 0 4.12-1.32 4.12-2.98 0-4.49-11.91-1.88-11.91-9.38 0-3.09 2.9-5.62 7.39-5.62 4.45 0 7.39 2.39 7.61 6.32h-3.34c-.15-2.02-1.69-3.49-4.38-3.49-2.46 0-3.93 1.18-3.93 2.79 0 4.78 11.69 2.17 11.84 9.38-.01 3.32-2.92 5.81-7.37 5.81zM355.91 387.08h-2.61v-2.76h2.61v-5.07h3.35v5.07h5.26v2.76h-5.26v11.87c0 1.98.73 2.68 2.79 2.68h2.46v2.83h-3.02c-3.57 0-5.59-1.47-5.59-5.51v-11.87zM368.56 377.26h3.35v9.96c1.32-2.13 3.82-3.27 6.65-3.27 4.48 0 8.05 2.87 8.05 8.64v11.87h-3.31v-11.4c0-4.12-2.24-6.21-5.62-6.21-3.42 0-5.77 2.13-5.77 6.47v11.14h-3.35v-27.2zM400.8 404.79c-5.73 0-9.96-4.04-9.96-10.44 0-6.36 4.08-10.37 9.96-10.37 5.85 0 9.67 4.12 9.67 9.63 0 .74-.04 1.32-.11 2.02h-16.1c.26 4.08 3.12 6.32 6.54 6.32 3.02 0 4.93-1.55 5.66-3.71h3.6c-1.03 3.69-4.27 6.55-9.26 6.55zm-6.51-11.87h12.72c.04-3.93-2.9-6.1-6.36-6.1-3.27 0-5.99 2.17-6.36 6.1zM428.03 404.46h-3.34v-20.15h3.34v3.27c1.14-2.24 3.31-3.64 6.51-3.64v3.46h-.88c-3.2 0-5.63 1.43-5.63 6.1v10.96zM447.11 404.79c-5.73 0-9.96-4.04-9.96-10.44 0-6.36 4.08-10.37 9.96-10.37 5.85 0 9.67 4.12 9.67 9.63 0 .74-.04 1.32-.11 2.02h-16.1c.26 4.08 3.13 6.32 6.55 6.32 3.01 0 4.93-1.55 5.66-3.71h3.6c-1.03 3.69-4.27 6.55-9.27 6.55zm-6.5-11.87h12.72c.04-3.93-2.9-6.1-6.36-6.1-3.28 0-6 2.17-6.36 6.1zM468.32 404.79c-4.71 0-8.01-2.57-8.24-6.25h3.46c.19 1.95 1.91 3.42 4.74 3.42 2.65 0 4.12-1.32 4.12-2.98 0-4.49-11.91-1.88-11.91-9.38 0-3.09 2.9-5.62 7.39-5.62 4.45 0 7.39 2.39 7.61 6.32h-3.34c-.15-2.02-1.69-3.49-4.38-3.49-2.46 0-3.93 1.18-3.93 2.79 0 4.78 11.69 2.17 11.84 9.38 0 3.32-2.91 5.81-7.36 5.81zM481.12 387.08h-2.61v-2.76h2.61v-5.07h3.34v5.07h5.26v2.76h-5.26v11.87c0 1.98.74 2.68 2.79 2.68h2.46v2.83h-3.01c-3.57 0-5.59-1.47-5.59-5.51v-11.87zM494.83 404.68c-1.29 0-2.28-.99-2.28-2.28 0-1.29.99-2.28 2.28-2.28 1.21 0 2.21.99 2.21 2.28-.01 1.29-1 2.28-2.21 2.28z"/><g id="XMLID_15_"><path id="XMLID_18_" fill="#121212" d="M92.29 92.36v93.72h64.05V92.36H92.29zm52.55 82.21H103.8v-70.71h41.04v70.71z"/><path id="XMLID_17_" fill="#121212" d="M166.74 186.09h11.5v-71.84l-11.5-11.51z"/><path id="XMLID_16_" fill="#121212" d="M188.63 124.64v61.45h11.51v-49.94z"/></g><path id="XMLID_12_" fill="#121212" d="M281.53 131.92c0 6.96-2.76 11.46-8.27 13.49l11 15.54h-11.94l-9.63-13.86h-6.71v13.86h-9.7V117.5h16.47c6.75 0 11.57 1.14 14.45 3.42 2.89 2.27 4.33 5.94 4.33 11zm-11.69 5.16c1.2-1.08 1.8-2.79 1.8-5.13s-.62-3.95-1.87-4.82c-1.24-.87-3.42-1.31-6.53-1.31h-7.27v12.87h7.09c3.32 0 5.58-.53 6.78-1.61z"/><path id="XMLID_10_" fill="#121212" d="M335.24 117.5v8.64h-21.63v8.95h19.46v8.27h-19.46v9.01h22.32v8.58h-32.01V117.5h31.32z"/><path id="XMLID_8_" fill="#121212" d="M375.4 125.89v35.06h-9.7v-35.06h-12.31v-8.39h34.31v8.39h-12.3z"/><path id="XMLID_6_" fill="#121212" d="M425.94 160.95h-9.7v-17.16l-15.04-26.3h10.5l9.39 16.16 9.39-16.16h10.51l-15.04 26.3v17.16z"/><path id="XMLID_3_" fill="#121212" d="M488.01 121.38c3.05 2.59 4.57 6.57 4.57 11.93 0 5.37-1.57 9.29-4.7 11.78s-7.9 3.73-14.33 3.73h-5.78v12.12h-9.7V117.5h15.36c6.68 0 11.54 1.29 14.58 3.88zm-7.11 17.1c1.15-1.31 1.74-3.21 1.74-5.72s-.75-4.29-2.27-5.35c-1.51-1.06-3.87-1.59-7.05-1.59h-5.53v14.61h6.52c3.23.01 5.43-.65 6.59-1.95z"/><path id="XMLID_1_" fill="#121212" d="M543.93 117.5v8.64H522.3v8.95h19.46v8.27H522.3v9.01h22.32v8.58H512.6V117.5h31.33z"/><path fill="#8dbbff" d="M207.25 256.31H96.97a.77.77 0 010-1.54h110.28a.77.77 0 010 1.54z"/><path fill="#8dbbff" d="M211.85 260.91c-2.96 0-5.36-2.41-5.36-5.36 0-2.96 2.41-5.36 5.36-5.36s5.36 2.41 5.36 5.36-2.41 5.36-5.36 5.36zm0-9.19c-2.11 0-3.83 1.72-3.83 3.83 0 2.11 1.72 3.83 3.83 3.83 2.11 0 3.83-1.72 3.83-3.83a3.837 3.837 0 00-3.83-3.83z"/><path fill="#e9f3ff" d="M1176.7 270.8l-149.78-7.85a2 2 0 01-1.89-2.1l8.71-166.25a2 2 0 012.1-1.89l149.78 7.85a2 2 0 011.89 2.1l-8.71 166.25a2 2 0 01-2.1 1.89z"/><path fill="#fff" d="M1167.2 259.19l-149.78-7.85a2 2 0 01-1.89-2.1l8.71-166.25a2 2 0 012.1-1.89l149.78 7.85a2 2 0 011.89 2.1l-8.71 166.25a2 2 0 01-2.1 1.89z"/><path fill="#aac4e2" d="M1166.11 260.35c-.08 0-.16 0-.24-.01l-147.25-7.72a4.5 4.5 0 01-4.25-4.72l8.58-163.73c.06-1.2.59-2.3 1.48-3.1s2.04-1.22 3.24-1.15l147.25 7.72c2.47.13 4.38 2.24 4.25 4.72l-8.58 163.73a4.503 4.503 0 01-4.48 4.26zm-.11-2.45c1.11.05 2.09-.81 2.15-1.93l8.58-163.73c.06-1.12-.81-2.08-1.93-2.14l-147.25-7.72c-.57-.03-1.07.16-1.47.52-.4.36-.64.87-.67 1.41l-8.58 163.73c-.06 1.12.81 2.09 1.93 2.15L1166 257.9z"/><circle fill="#1956af" opacity="0.15" cx="1035.31" cy="89.43" r="2.75"/><circle fill="#1956af" opacity="0.15" cx="1057.54" cy="90.6" r="2.75"/><circle fill="#1956af" opacity="0.15" cx="1046.25" cy="90" r="2.75"/><path fill="#e1edff" d="M1031.691 105.456l21.99 1.152-7.061 134.811-21.99-1.152zM1062.929 107.093l99.06 5.188-2.293 43.798-99.061-5.188zM1057.451 211.7l99.061 5.187-1.472 28.11-99.061-5.187z"/><path fill="#1956af" opacity="0.2" d="M1157.27 167.08h-.09l-94.15-4.93c-.9-.05-1.59-.82-1.54-1.72.05-.9.75-1.6 1.72-1.54l94.15 4.93c.9.05 1.59.82 1.54 1.72-.04.86-.76 1.54-1.63 1.54zM1156.62 179.63h-.09l-94.15-4.93c-.9-.05-1.59-.82-1.54-1.72.05-.9.76-1.58 1.72-1.54l94.15 4.93c.9.05 1.59.82 1.54 1.72a1.64 1.64 0 01-1.63 1.54zM1155.96 192.18h-.09l-94.15-4.93c-.9-.05-1.59-.82-1.54-1.72.05-.9.78-1.61 1.72-1.54l94.15 4.93c.9.05 1.59.82 1.54 1.72-.05.87-.77 1.54-1.63 1.54zM1155.38 203.17h-.09l-94.15-4.93c-.9-.05-1.59-.82-1.54-1.72.05-.9.76-1.61 1.72-1.54l94.15 4.93c.9.05 1.59.82 1.54 1.72-.04.86-.76 1.54-1.63 1.54z"/><path fill="#1956af" d="M909.55 632.7h.06l-.24-1.4v-.01l-.15-1.05h-.03l-5.55-31.88h-28.98l-.25.9c-4.72 17.2-37.76 21.37-39.05 21.52-5.19-.08-14.93 2.04-15.3 10.63-.37 8.51 4.9 8.99 5.21 9.01l82.02-.1c.39.06.9-.04 1.36-.41.76-.62 1.51-2.04.9-7.21zm-2.42 5.18l-81.74.1c-.13-.01-3.14-.43-2.88-6.46.3-6.95 8.55-8.08 11.71-8.26v9.43h72.87c.43 3.44.18 4.75.04 5.19z"/><path fill="#e9f3ff" d="M740.74 335.03l-86.57 14.42c-1.09.18-2.12-.55-2.3-1.64l-19.53-117.23c-.18-1.09.55-2.12 1.64-2.3l86.57-14.42c1.09-.18 2.12.55 2.3 1.64l19.53 117.23c.19 1.09-.55 2.12-1.64 2.3z"/><path fill="#1956af" d="M913.46 407.94h-95.65c-1.91 0-3.63-1.13-4.4-2.87l-37.22-84.81a4.78 4.78 0 012.32-6.26l.52-.25c1.18-.57 2.51-.63 3.74-.18 1.23.45 2.2 1.36 2.73 2.56l35.76 80.79c.38.85 1.22 1.4 2.15 1.4h90.04c2.65 0 4.81 2.16 4.81 4.81s-2.15 4.81-4.8 4.81zm-132.35-92.22c-.35 0-.7.08-1.02.23l-.52.25a2.35 2.35 0 00-1.14 3.07l37.22 84.8c.38.86 1.22 1.41 2.16 1.41h95.65c1.3 0 2.36-1.06 2.36-2.36 0-1.3-1.06-2.36-2.36-2.36h-90.04c-1.9 0-3.63-1.12-4.39-2.86l-35.76-80.79c-.26-.59-.74-1.04-1.34-1.26-.27-.08-.55-.13-.82-.13z"/><path fill="#fff" d="M729.79 327.96l-86.57 14.42c-1.09.18-2.12-.55-2.3-1.64l-19.53-117.23c-.18-1.09.55-2.12 1.64-2.3l86.57-14.42c1.09-.18 2.12.55 2.3 1.64l19.53 117.23c.18 1.08-.56 2.11-1.64 2.3z"/><path fill="#aac4e2" d="M643.91 343.44c-.93 0-1.83-.29-2.6-.84a4.46 4.46 0 01-1.82-2.91l-19.12-114.74c-.2-1.18.08-2.37.78-3.35s1.73-1.62 2.91-1.82l84.08-14.01c2.44-.4 4.76 1.25 5.17 3.69l19.11 114.74a4.489 4.489 0 01-3.68 5.17l-84.08 14.01c-.25.04-.5.06-.75.06zm64.98-135.27c-.11 0-.22.01-.34.03l-84.08 14.01a2.047 2.047 0 00-1.68 2.35l19.12 114.74c.09.54.38 1.01.83 1.32.44.32.98.45 1.52.35l84.08-14.01a2.033 2.033 0 001.67-2.35L710.9 209.87c-.17-.99-1.03-1.7-2.01-1.7z"/><g opacity=".2"><path fill="#1956af" d="M639.738 243.742l43.796-7.286.535 3.216-43.796 7.286zM641.439 253.96l62.774-10.443.535 3.216-62.774 10.443zM643.389 265.64l62.774-10.444.535 3.216-62.774 10.443zM645.089 275.86l62.774-10.444.535 3.216-62.774 10.443zM646.79 286.08l62.774-10.444.535 3.216-62.775 10.443zM648.5 296.297l62.774-10.443.535 3.216-62.775 10.443zM650.438 307.968l62.774-10.443.535 3.215-62.774 10.444zM652.138 318.188l62.775-10.443.535 3.215-62.775 10.444z"/></g><path fill="#e9f3ff" d="M924.94 221.67l-153.81 8.06a2 2 0 01-2.1-1.89l-5.87-111.95a2 2 0 011.89-2.1l153.81-8.06a2 2 0 012.1 1.89l5.87 111.95a2 2 0 01-1.89 2.1z"/><path fill="#fff" d="M915.32 211.08l-153.81 8.06a2 2 0 01-2.1-1.89l-5.87-111.95a2 2 0 011.89-2.1l153.81-8.06a2 2 0 012.1 1.89l5.87 111.95c.06 1.1-.78 2.04-1.89 2.1z"/><path fill="#aac4e2" d="M762.59 220.3c-1.11 0-2.17-.4-3-1.15-.89-.8-1.42-1.9-1.48-3.1l-5.73-109.42a4.44 4.44 0 011.15-3.24c.8-.89 1.9-1.42 3.1-1.48l151.29-7.93c1.18-.07 2.35.35 3.24 1.15.89.8 1.42 1.9 1.48 3.1l5.73 109.42a4.44 4.44 0 01-1.15 3.24c-.8.89-1.9 1.42-3.1 1.48l-151.29 7.93h-.24zM908.16 96.42h-.11l-151.29 7.93c-.54.03-1.04.27-1.41.67-.36.4-.55.93-.52 1.47l5.73 109.42c.03.55.27 1.05.67 1.41.4.37.93.55 1.47.52l151.3-7.92a2.032 2.032 0 001.93-2.14L910.2 98.36c-.03-.54-.27-1.04-.67-1.41-.39-.34-.87-.53-1.37-.53z"/><circle fill="#1956af" opacity="0.15" cx="765.53" cy="110.74" r="2.82"/><circle fill="#1956af" opacity="0.15" cx="788.34" cy="109.54" r="2.82"/><circle fill="#1956af" opacity="0.15" cx="776.76" cy="110.15" r="2.82"/><path fill="#e1edff" d="M763.56 127.551l22.569-1.182 4.273 81.586-22.569 1.182zM881.916 121.357l22.569-1.182 2.136 40.793-22.568 1.182zM795.617 125.875l77.032-4.035 2.355 44.957-77.032 4.035z"/><path fill="#1956af" opacity="0.2" d="M801.04 181.36c-.86 0-1.58-.68-1.63-1.55-.05-.9.65-1.67 1.54-1.72l72.06-3.78c.91-.05 1.67.65 1.72 1.54.05.9-.65 1.67-1.54 1.72l-72.06 3.78c-.04.01-.06.01-.09.01zM801.68 193.63c-.86 0-1.58-.68-1.63-1.55-.05-.9.65-1.67 1.54-1.72l72.06-3.78c.91-.06 1.67.65 1.72 1.54.05.9-.65 1.67-1.54 1.72l-72.06 3.78c-.03.01-.06.01-.09.01zM802.26 204.76c-.86 0-1.58-.68-1.63-1.55-.05-.9.65-1.67 1.54-1.72l72.06-3.78c.92-.04 1.67.65 1.72 1.54.05.9-.65 1.67-1.54 1.72l-72.06 3.78c-.03.01-.06.01-.09.01z"/><path fill="#aac4e2" d="M738.78 379.94c-13.34 0-30.91-2.75-40.67-15.52l1.94-1.49c15.87 20.76 55.6 13.11 56 13.03l.48 2.4c-.71.15-8.13 1.58-17.75 1.58zM661.32 182.61l-2.09-1.28c.22-.36 22.75-36.26 68.36-39.65l.18 2.44c-44.33 3.29-66.24 38.14-66.45 38.49zM1006.11 161.44c-28.63-10.54-63.39-12.05-63.74-12.06l.1-2.44c.35.01 35.49 1.53 64.49 12.21l-.85 2.29zM969.19 98.91l-.01-2.45-4.52.02-.02-4.72-2.45.01.02 4.72-4.72.02.01 2.45 4.72-.02.02 5.04 2.45-.01-.02-5.04zM655.94 105.05l-1.74-1.72-3.33 3.36-3.35-3.33-1.73 1.74 3.36 3.32-3.55 3.58 1.74 1.72 3.54-3.57 3.21 3.18 1.73-1.73-3.21-3.19zM611.42 335.41l-1.74-1.72-3.33 3.35-3.35-3.32-1.72 1.74 3.35 3.32-3.55 3.58 1.74 1.72 3.55-3.57 3.21 3.18 1.72-1.74-3.21-3.18zM847.84 43.68c-3.07 0-5.57-2.5-5.57-5.57s2.5-5.57 5.57-5.57c3.07 0 5.57 2.5 5.57 5.57s-2.5 5.57-5.57 5.57zm0-8.69c-1.72 0-3.12 1.4-3.12 3.12s1.4 3.12 3.12 3.12c1.72 0 3.12-1.4 3.12-3.12s-1.4-3.12-3.12-3.12zM1219.51 232.06c-3.07 0-5.57-2.5-5.57-5.57s2.5-5.57 5.57-5.57c3.07 0 5.57 2.5 5.57 5.57s-2.49 5.57-5.57 5.57zm0-8.69c-1.72 0-3.12 1.4-3.12 3.12s1.4 3.12 3.12 3.12 3.12-1.4 3.12-3.12-1.39-3.12-3.12-3.12zM1023.39 59.95V44.54l13.34 7.7-13.34 7.71zm2.44-11.17v6.93l6-3.46-6-3.47z"/><path fill="#e9f3ff" d="M923.05 338.96h-81.84c-1.1 0-2-.9-2-2v-55.2c0-1.1.9-2 2-2h81.84c1.1 0 2 .9 2 2v55.2c0 1.11-.89 2-2 2z"/><path d="M915.65 330.08h-81.84c-1.1 0-2-.9-2-2v-55.2c0-1.1.9-2 2-2h81.84c1.1 0 2 .9 2 2v55.2c0 1.11-.89 2-2 2z" fill="#b3d2ff"/><g><path fill="#fff" d="M843.23 280.97l6.13 5.56-6.13 5.56-1.41-1.55 4.5-4-4.5-4.03 1.41-1.54z"/></g><path fill="#fff" d="M856.97 284.2h48.84v4.44h-48.84zM856.97 296.04h31.08v4.44h-31.08z"/><path d="M566.91 585.9s-38.82-46.26-37.2-84.88 9.1-68.34 9.1-68.34 7.47-7.41 21.06 46.28.65 71.86 3.83 83.69 3.21 23.25 3.21 23.25z" fill="#84cec0"/><path fill="#5abfac" d="M559.8 558.56s-16.61-63.17 22.65-104.33c0 0 18.12 74.31-20.51 129.15l-2.14-24.82z"/><path fill="#1956af" opacity="0.15" d="M534.35 581.79l7.52 58.64h40.44l7.15-58.64z"/><path fill="#1956af" opacity="0.15" d="M535.3 588.58h53.26l-1.18 6.9-50.11 4.05z"/><path fill="#5abfac" d="M559.65 573.63c-.09-.97-9.33-97.45-12.16-108.85l1.58-.39c2.85 11.51 11.82 105.1 12.2 109.08l-1.62.16z"/><path d="M564.71 573.61c-1.9-26.52 12.65-91.61 12.79-92.26l1.59.36c-.15.65-14.65 65.51-12.76 91.78l-1.62.12z" fill="#36ad99"/><path fill="#dde6f3" d="M591.7 588.71h-60.1c-.55 0-1-.45-1-1v-13.04c0-.55.45-1 1-1h60.1c.55 0 1 .45 1 1v13.04c0 .56-.44 1-1 1z"/><path fill="#1956af" opacity="0.15" d="M729.48 562.58c0-3.49-1.29-6.77-3.56-9.66l2.14-15.91c.26-1.9-1.9-3.17-3.44-2.02l-12.16 9.07c-4.14-1.4-8.8-2.2-13.74-2.2-6.71 0-12.91 1.47-17.97 3.92l-12.8-9.55c-1.36-1.02-3.25.24-2.83 1.89l4.5 17.77c-1.06 2.1-1.67 4.34-1.67 6.68 0 8.84 8.23 16.36 19.8 19.34-2.98 4.38-8.83 11.44-19.8 20.21-7.78 6.22-11.11 13.83-12.34 20.63-5.97-2.18-14.17-9.01-7.12-30.36 10.36-31.39-8.79-42.06-16.01-38.93-7.22 3.14 12.24 9.73 10.36 23.54-1.88 13.81-13.87 54.83 12.31 56.62.36 4.12 1.19 6.79 1.19 6.79h63.21c2.29 0-.11-14.44-.11-14.44l-6.91-44.92c10.04-3.39 16.95-10.38 16.95-18.47z"/><path fill="#1956af" d="M930.82 420.84H663.54a4.49 4.49 0 01-4.49-4.49v-6.37a4.49 4.49 0 014.49-4.49h267.28c2.47 0 4.49 2.01 4.49 4.49v6.37a4.49 4.49 0 01-4.49 4.49zm-267.28-12.9c-1.13 0-2.04.91-2.04 2.04v6.37c0 1.13.91 2.04 2.04 2.04h267.28c1.13 0 2.04-.91 2.04-2.04v-6.37c0-1.13-.91-2.04-2.04-2.04H663.54z"/><path fill="#1956af" d="M812.83 640.43h-9.47V420.74H791v219.68h-45.78c-.68 0-1.22-.55-1.22-1.22 0-.68.55-1.22 1.22-1.22h43.33V418.29h17.25v219.68h7.03c.68 0 1.22.55 1.22 1.22 0 .69-.55 1.24-1.22 1.24z"/><g><path fill="#fff" d="M1055.03 434.98H930.61c-11.43 0-19.93 10.55-17.5 21.72l27.77 127.57h26.37l-4.11-98.67h136.75c22.76 0 39.04-22.02 32.37-43.78l-2.37-7.74-74.86.9z"/><path fill="#1956af" d="M968.53 585.49H939.9l-.21-.96-27.77-127.57c-1.24-5.68.15-11.54 3.79-16.07 3.65-4.53 9.08-7.13 14.9-7.13h124.41l75.77-.91 2.64 8.62c3.3 10.75 1.35 22.1-5.33 31.14s-16.97 14.23-28.21 14.23H964.42l4.11 98.65zm-26.66-2.44h24.1l-4.11-98.67h138.02c10.46 0 20.02-4.82 26.24-13.23 6.22-8.41 8.02-18.97 4.96-28.97l-2.11-6.87-73.96.89h-124.4c-5.07 0-9.81 2.27-12.99 6.22a16.62 16.62 0 00-3.31 14.02l27.56 126.61z"/></g><path fill="#1956af" d="M1169.01 640.43H996.45v-2.45h170.11V486.59H953.67v-2.44h215.34z"/><path fill="#fff" d="M901.76 623.24s-13.73-.27-14.15 9.46c-.32 7.42 3.99 7.73 3.99 7.73l82.13-.1s1.98.68.76-7.63h-72.72v-9.46z"/><path fill="#1956af" d="M975.87 632.7h.02l-.2-1.35c0-.02 0-.04-.01-.06l-.11-.72-4.74-32.21h-31.22l-.25.9c-4.73 17.2-36.47 21.37-37.7 21.52-5.21-.08-14.92 2.05-15.29 10.63-.37 8.5 4.9 8.99 5.21 9.01l82.02-.1c.39.06.9-.04 1.36-.41.77-.62 1.52-2.04.91-7.21zm-2.42 5.18l-81.74.1c-.13-.01-3.14-.43-2.88-6.46.3-6.95 8.55-8.08 11.71-8.26v9.43h72.87c.43 3.44.19 4.75.04 5.19zM938.83 573.62h28.03v2.45h-28.03z"/><path fill="#1956af" d="M968.22 600.91h-25.39l-2-17.87h25.54l1.85 17.87zm-23.2-2.45h20.49l-1.35-12.97h-20.59l1.45 12.97z"/><g><path fill="#fff" d="M882.34 584.27L913 449.59l16.12 80.66-22.94 54.02z"/><path fill="#1956af" d="M906.18 585.49h-23.85c-.37 0-.73-.17-.96-.46-.23-.29-.32-.67-.24-1.03l30.66-134.68c.13-.56.62-.95 1.19-.95h.02c.58.01 1.07.42 1.18.98l16.13 80.66c.05.24.02.49-.07.72l-22.94 54.02c-.18.45-.63.74-1.12.74zm-22.31-2.44h21.5l22.48-52.93-14.93-74.67-29.05 127.6z"/></g><path fill="#1956af" d="M885.28 573.62h24.91v2.45h-24.91z"/><path fill="#fff" d="M883.8 584.27l-5.37 15.42h21.83l4.07-15.42z"/><path fill="#1956af" d="M901.21 600.91h-24.5l6.22-17.87h23l-4.72 17.87zm-21.06-2.45h19.17l3.42-12.97h-18.08l-4.51 12.97zM788.56 418.39v13.37l17.24 9.19v-22.56zM930.32 530.01l-16.13-80.66c-.11-.57-.61-.98-1.18-.98h-.02c-.57 0-1.07.4-1.19.95l-8.73 38.4c-.04.18-.04.36 0 .54l14.65 66.3c.11.52.55.91 1.08.95h.11c.49 0 .93-.29 1.13-.75l10.21-24.04c.1-.22.12-.47.07-.71z"/><g><path fill="#fff" d="M1080.1 307.73l-8.73-23.38-19.73-37.26c3.75-7.44 5.59-14.98 5.12-20.23-1.38-15.13-39.59-41.76-62.93-4.86 0 0-4.1 48.5 23.49 50.52 6.03.44 7.2-.44 12.21-2.67l11.35 31.72 39.22 6.16z"/><path fill="#1956af" d="M1081.98 309.26l-42.01-6.59-11.15-31.16-.18.08c-4.01 1.82-5.68 2.57-11.42 2.15-5.97-.44-10.97-2.98-14.89-7.57-12.12-14.2-9.84-43.06-9.73-44.28l.03-.3.16-.25c13.18-20.83 29.92-20.38 38.73-18.25 14.65 3.53 25.7 15.3 26.46 23.65.49 5.42-1.36 12.98-4.96 20.32l19.43 36.71 9.53 25.49zm-40.2-8.78l36.44 5.72-8-21.42-19.96-37.68.28-.56c3.59-7.13 5.46-14.44 4.99-19.57-.68-7.51-11.35-18.3-24.6-21.49-8.13-1.96-23.59-2.36-35.92 16.92-.21 3.09-1.65 29.51 9.18 42.2 3.47 4.07 7.91 6.32 13.2 6.71 5.12.37 6.41-.21 10.23-1.94l2.6-1.17 11.56 32.28z"/></g><g><path fill="#fff" d="M904.27 382.55l93.45-24.42 10.94 14.55-95.97 14.12z"/><path fill="#1956af" d="M912.49 388.07l-11.66-5.89 97.38-25.45 12.67 16.85-98.39 14.49zm-4.78-5.16l5.19 2.62 93.55-13.77-9.21-12.25-89.53 23.4z"/></g><g><path fill="#fff" d="M1005.76 367.2l-97.12 15.79c-.46.08-.94.08-1.4 0l-25.27-4.14c-.78-.13-1.59-.04-2.32.26L854.98 389a4.348 4.348 0 00-2.73 4.04c0 2.59 2.25 4.61 4.83 4.33l31.39-3.45c.45-.05.91-.03 1.35.06l18.62 3.83c.29.06.58.09.88.09h93.83c2.06 0 4.03-.81 5.5-2.24l11.26-11.02-14.15-17.44z"/><path fill="#1956af" d="M1003.15 399.12h-93.84c-.38 0-.76-.04-1.13-.11l-18.62-3.83c-.32-.07-.65-.08-.97-.05l-31.39 3.45a5.584 5.584 0 01-6.19-5.54c0-2.29 1.38-4.32 3.5-5.18l24.67-9.89c.95-.38 1.97-.49 2.98-.33l25.27 4.14c.33.05.67.06 1 0l97.82-15.91 15.31 18.85-12.06 11.8a8.965 8.965 0 01-6.35 2.6zm-114.21-6.46c.38 0 .75.04 1.12.11l18.62 3.83c.2.04.41.06.63.06h93.84c1.75 0 3.4-.67 4.65-1.89l10.46-10.23-13.01-16.02-96.42 15.68c-.59.1-1.2.1-1.8 0l-25.27-4.14c-.56-.09-1.14-.03-1.67.18l-24.67 9.89a3.126 3.126 0 00-.93 5.23c.67.6 1.52.88 2.43.78l31.39-3.45c.23-.02.43-.03.63-.03z"/></g><g><path fill="#dde6f3" d="M997.72 358.13l34.41-51.25-21.61 68.29z"/><path fill="#1956af" d="M1010.97 377.81l-14.75-19.64 39.65-59.06-24.9 78.7zm-11.75-19.72l10.85 14.45 18.32-57.88-29.17 43.43z"/></g><g><path fill="#dde6f3" d="M1140.4 428.23l-60.34-126.88-14.09-27.21-30.03 13.68c-3.1 8.68-3.98 12.61-7.77 24.04l-25.09 53.36 16.81 22.54 20.03-17.03 15.08 64.25h81.11c3.5 0 5.78-3.62 4.29-6.75z"/><path fill="#1956af" d="M1136.14 436.2h-82.08l-14.84-63.24-19.5 16.58-18.03-24.17 25.4-54.03c1.62-4.92 2.73-8.51 3.71-11.69 1.22-3.96 2.28-7.38 4.01-12.24l.17-.49 31.56-14.38 14.62 28.25 60.35 126.91c.88 1.85.75 4-.34 5.73a5.916 5.916 0 01-5.03 2.77zm-80.14-2.44h80.14c1.21 0 2.31-.61 2.96-1.63.65-1.02.72-2.28.2-3.37l-60.33-126.88-13.53-26.14-28.5 12.98c-1.61 4.55-2.63 7.85-3.8 11.65-.98 3.18-2.09 6.79-3.78 11.87l-24.83 52.83 15.6 20.91 20.57-17.48 15.3 65.26z"/></g><path fill="#1956af" d="M1038.6 370.35l6.91 29.43 27.81-64.5zM1050.58 207.5c-5.88-6.82-14.2-9.86-23.61-8.87h-.07c-25.4 1.31-38.26 11.47-43.67 17.41-1.93 2.12-3.38 6.56-2.36 10.04.7 2.38 2.45 4.01 5.06 4.7l6.4.29v.01l.88.03h.1l33.39 1.1 3.06 16.4.79-4.39c.02-.09 1.75-9.48 6.19-12.33 1.2-.77 2.47-.97 3.87-.61 6.3 1.63 8.95 19.04 9.44 25.61l.21 2.78 1.33-2.45c9.62-17.87 9.23-37.85-1.01-49.72zM1028.04 269.35l4.94 13.79 9.87-23.38z"/><circle fill="#fff" cx="952.13" cy="611.77" r="4.81"/><path fill="#fff" d="M915.756 619.94l1.584-.384.953 3.926-1.584.384zM922.503 617.173l1.507-.62 1.987 4.827-1.507.62zM928.094 614.318l1.35-.915 2.58 3.809-1.35.914zM933.5 610.342l1.154-1.152 2.798 2.802-1.154 1.152zM849.49 619.88l1.584-.384.951 3.927-1.584.384zM856.184 617.17l1.507-.62 1.987 4.827-1.507.62zM861.776 614.238l1.349-.915 2.581 3.807-1.349.915zM867.9 611.062l1.153-1.152 2.799 2.802-1.153 1.152z"/></svg>
